<svg xmlns="http://www.w3.org/2000/svg" width="18.034" height="20.61" viewBox="0 0 18.034 20.61">
  <g id="pdf" transform="translate(0)">
    <path id="Path_52602" data-name="Path 52602" d="M97.288,0A1.292,1.292,0,0,0,96,1.288V19.322a1.292,1.292,0,0,0,1.288,1.288H110.17a1.292,1.292,0,0,0,1.288-1.288V5.153L106.305,0Z" transform="translate(-93.424)" fill="#e2e5e7"/>
    <path id="Path_52603" data-name="Path 52603" d="M353.288,5.153h3.864L352,0V3.864A1.292,1.292,0,0,0,353.288,5.153Z" transform="translate(-339.118)" fill="#b0b7bd"/>
    <path id="Path_52604" data-name="Path 52604" d="M387.864,131.864,384,128h3.864Z" transform="translate(-369.83 -122.847)" fill="#cad1d8"/>
    <path id="Path_52605" data-name="Path 52605" d="M47.458,247.085a.646.646,0,0,1-.644.644H32.644a.646.646,0,0,1-.644-.644v-6.441a.646.646,0,0,1,.644-.644h14.17a.646.646,0,0,1,.644.644Z" transform="translate(-32 -230.339)" fill="#f15642"/>
    <g id="Group_23644" data-name="Group 23644" transform="translate(2.808 11.848)">
      <path id="Path_52606" data-name="Path 52606" d="M101.744,294.676a.354.354,0,0,1,.35-.356h1.19a1.288,1.288,0,0,1,0,2.575h-.86v.68a.323.323,0,0,1-.33.355.347.347,0,0,1-.35-.355Zm.68.293v1.283h.86a.642.642,0,0,0,0-1.283Z" transform="translate(-101.744 -294.32)" fill="#fff"/>
      <path id="Path_52607" data-name="Path 52607" d="M188.18,299.036a.322.322,0,0,1-.356-.319v-2.925a.35.35,0,0,1,.356-.319h1.179a1.783,1.783,0,0,1,.046,3.564Zm.325-2.935v2.307h.855a1.157,1.157,0,0,0,0-2.307Z" transform="translate(-184.359 -295.426)" fill="#fff"/>
      <path id="Path_52608" data-name="Path 52608" d="M287.81,296.126v.819h1.313a.4.4,0,0,1,.371.365.358.358,0,0,1-.371.309H287.81V298.7a.305.305,0,0,1-.308.319.327.327,0,0,1-.365-.319v-2.925a.326.326,0,0,1,.365-.319h1.808a.321.321,0,0,1,.361.319.356.356,0,0,1-.361.35h-1.5Z" transform="translate(-279.673 -295.41)" fill="#fff"/>
    </g>
    <path id="Path_52609" data-name="Path 52609" d="M108.237,416.644H96v.644h12.237a.646.646,0,0,0,.644-.644V416A.646.646,0,0,1,108.237,416.644Z" transform="translate(-93.424 -399.254)" fill="#cad1d8"/>
  </g>
</svg>
